<svg xmlns="http://www.w3.org/2000/svg" style="display: none;">
	<defs>
		<linearGradient id='gradient'>
			<stop stop-color='black'/>
			<stop offset='100%' stop-color='white'/>
		</linearGradient>
	</defs>
	<symbol id="icon-checkbox" viewBox="0 0 24 24">
		<path d="M19 5v14H5V5h14m0-2H5c-1.1 0-2 .9-2 2v14c0 1.1.9 2 2 2h14c1.1 0 2-.9 2-2V5c0-1.1-.9-2-2-2z"/>
	</symbol>

	<symbol id="icon-checkbox-checked" viewBox="0 0 24 24">
		<path d="M19 3H5c-1.11 0-2 .9-2 2v14c0 1.1.89 2 2 2h14c1.11 0 2-.9 2-2V5c0-1.1-.89-2-2-2zm-9 14l-5-5 1.41-1.41L10 14.17l7.59-7.59L19 8l-9 9z"/>
	</symbol>

	<symbol id="icon-close" viewBox="0 0 24 24">
		<path d="M19 6.41L17.59 5 12 10.59 6.41 5 5 6.41 10.59 12 5 17.59 6.41 19 12 13.41 17.59 19 19 17.59 13.41 12z"/>
	</symbol>

	<symbol id="icon-edit" viewBox="0 0 24 24">
		<path d="M3 17.25V21h3.75L17.81 9.94l-3.75-3.75L3 17.25zM20.71 7.04c.39-.39.39-1.02 0-1.41l-2.34-2.34c-.39-.39-1.02-.39-1.41 0l-1.83 1.83 3.75 3.75 1.83-1.83z"/>
	</symbol>

	<symbol id="icon-share" viewBox="0 0 24 24">
		<path d="M18 16.08c-.76 0-1.44.3-1.96.77L8.91 12.7c.05-.23.09-.46.09-.7s-.04-.47-.09-.7l7.05-4.11c.54.5 1.25.81 2.04.81 1.66 0 3-1.34 3-3s-1.34-3-3-3-3 1.34-3 3c0 .24.04.47.09.7L8.04 9.81C7.5 9.31 6.79 9 6 9c-1.66 0-3 1.34-3 3s1.34 3 3 3c.79 0 1.5-.31 2.04-.81l7.12 4.16c-.05.21-.08.43-.08.65 0 1.61 1.31 2.92 2.92 2.92 1.61 0 2.92-1.31 2.92-2.92s-1.31-2.92-2.92-2.92z">
	</symbol>

	<symbol id="icon-more" viewBox="0 0 24 24">
		<path d="M12 8c1.1 0 2-.9 2-2s-.9-2-2-2-2 .9-2 2 .9 2 2 2zm0 2c-1.1 0-2 .9-2 2s.9 2 2 2 2-.9 2-2-.9-2-2-2zm0 6c-1.1 0-2 .9-2 2s.9 2 2 2 2-.9 2-2-.9-2-2-2z"/>
	</symbol>

	<symbol id="icon-spinner" viewBox="0 0 24 24">
		<path d="M12,19.5v2c-5.238,0-9.5-4.262-9.5-9.5h2C4.5,16.136,7.864,19.5,12,19.5z M19.5,12h2c0-5.238-4.262-9.5-9.5-9.5v2C16.136,4.5,19.5,7.864,19.5,12z"/>
	</symbol>

</svg>